<mxfile host="app.diagrams.net" modified="2023-12-09T08:46:09.564Z" agent="Mozilla/5.0 (Windows NT 10.0; Win64; x64; rv:120.0) Gecko/20100101 Firefox/120.0" etag="5y9AxOkrc3FVEQM4KUF8" version="22.1.7" type="onedrive">
  <diagram name="Page-1" id="4NQvMj8OtXhhOH324SEy">
    <mxGraphModel grid="1" page="1" gridSize="10" guides="1" tooltips="1" connect="1" arrows="1" fold="1" pageScale="1" pageWidth="850" pageHeight="1100" math="0" shadow="0">
      <root>
        <mxCell id="0" />
        <mxCell id="1" parent="0" />
        <mxCell id="NBWHCyYkV5ATewxZEKy5-3" value="" style="edgeStyle=orthogonalEdgeStyle;rounded=0;orthogonalLoop=1;jettySize=auto;html=1;" edge="1" parent="1" source="NBWHCyYkV5ATewxZEKy5-1" target="NBWHCyYkV5ATewxZEKy5-2">
          <mxGeometry relative="1" as="geometry" />
        </mxCell>
        <mxCell id="NBWHCyYkV5ATewxZEKy5-1" value="INPUT" style="rounded=0;whiteSpace=wrap;html=1;" vertex="1" parent="1">
          <mxGeometry x="20" y="110" width="120" height="60" as="geometry" />
        </mxCell>
        <mxCell id="NBWHCyYkV5ATewxZEKy5-5" value="" style="edgeStyle=orthogonalEdgeStyle;rounded=0;orthogonalLoop=1;jettySize=auto;html=1;" edge="1" parent="1" source="NBWHCyYkV5ATewxZEKy5-2" target="NBWHCyYkV5ATewxZEKy5-4">
          <mxGeometry relative="1" as="geometry" />
        </mxCell>
        <mxCell id="NBWHCyYkV5ATewxZEKy5-2" value="Microcontroller" style="rounded=0;whiteSpace=wrap;html=1;" vertex="1" parent="1">
          <mxGeometry x="190" y="110" width="120" height="60" as="geometry" />
        </mxCell>
        <mxCell id="NBWHCyYkV5ATewxZEKy5-7" value="" style="edgeStyle=orthogonalEdgeStyle;rounded=0;orthogonalLoop=1;jettySize=auto;html=1;" edge="1" parent="1" source="NBWHCyYkV5ATewxZEKy5-4" target="NBWHCyYkV5ATewxZEKy5-6">
          <mxGeometry relative="1" as="geometry" />
        </mxCell>
        <mxCell id="NBWHCyYkV5ATewxZEKy5-4" value="Driver" style="rounded=0;whiteSpace=wrap;html=1;" vertex="1" parent="1">
          <mxGeometry x="360" y="110" width="120" height="60" as="geometry" />
        </mxCell>
        <mxCell id="NBWHCyYkV5ATewxZEKy5-12" value="" style="edgeStyle=orthogonalEdgeStyle;rounded=0;orthogonalLoop=1;jettySize=auto;html=1;" edge="1" parent="1" source="NBWHCyYkV5ATewxZEKy5-6" target="NBWHCyYkV5ATewxZEKy5-11">
          <mxGeometry relative="1" as="geometry" />
        </mxCell>
        <mxCell id="NBWHCyYkV5ATewxZEKy5-16" value="" style="edgeStyle=orthogonalEdgeStyle;rounded=0;orthogonalLoop=1;jettySize=auto;html=1;" edge="1" parent="1" source="NBWHCyYkV5ATewxZEKy5-6" target="NBWHCyYkV5ATewxZEKy5-15">
          <mxGeometry relative="1" as="geometry" />
        </mxCell>
        <mxCell id="NBWHCyYkV5ATewxZEKy5-6" value="DC Motor" style="rounded=0;whiteSpace=wrap;html=1;" vertex="1" parent="1">
          <mxGeometry x="530" y="110" width="120" height="60" as="geometry" />
        </mxCell>
        <mxCell id="NBWHCyYkV5ATewxZEKy5-13" style="edgeStyle=orthogonalEdgeStyle;rounded=0;orthogonalLoop=1;jettySize=auto;html=1;" edge="1" parent="1" source="NBWHCyYkV5ATewxZEKy5-11" target="NBWHCyYkV5ATewxZEKy5-2">
          <mxGeometry relative="1" as="geometry" />
        </mxCell>
        <mxCell id="NBWHCyYkV5ATewxZEKy5-11" value="Encoder" style="rounded=0;whiteSpace=wrap;html=1;" vertex="1" parent="1">
          <mxGeometry x="530" y="210" width="120" height="60" as="geometry" />
        </mxCell>
        <mxCell id="NBWHCyYkV5ATewxZEKy5-15" value="Output" style="whiteSpace=wrap;html=1;rounded=0;" vertex="1" parent="1">
          <mxGeometry x="710" y="110" width="120" height="60" as="geometry" />
        </mxCell>
      </root>
    </mxGraphModel>
  </diagram>
</mxfile>
